<svg xmlns="http://www.w3.org/2000/svg" width="40" height="40" viewBox="0 0 40 40"><path d="M2.359,0H37.641A2.366,2.366,0,0,1,40,2.358V37.641A2.366,2.366,0,0,1,37.641,40H2.359A2.366,2.366,0,0,1,0,37.642V2.359A2.366,2.366,0,0,1,2.359,0Zm8.07,22.153,0,0,0,0,0,0h0l5.527,5.012a1.319,1.319,0,0,0,1.411.231,1.3,1.3,0,0,0,.4-.276l0,0,.011-.009h0l.01-.01L29.637,14.716a1.318,1.318,0,0,0,.275-.434h0a1.323,1.323,0,0,0-.025-1.012,1.317,1.317,0,0,0-.3-.42h0a1.307,1.307,0,0,0-.434-.275h0a1.321,1.321,0,0,0-1.431.322h0L16.81,24.326l-.029.031-.032-.028L12.2,20.2a1.316,1.316,0,0,0-1.856.088h0l-.008.008h0a1.315,1.315,0,0,0,.092,1.851Z" fill="#15803d" fill-rule="evenodd"/></svg>