<svg xmlns="http://www.w3.org/2000/svg" width="80" height="80" viewBox="0 0 80 80"><path d="M53.245,6.222,34.967,16.988l21.446,2.871L74.048,9.017l-20.8-2.795Zm4.19,31.965A20.909,20.909,0,1,1,36.223,59.095,21.061,21.061,0,0,1,57.435,38.187ZM54.056,51.4c-.008-.982-.1-1.683,1.137-1.666l4,.047c1.293-.008,1.636.4,1.619,1.59v4.453H65.3c1-.008,1.709-.1,1.692,1.121l-.049,3.944c.006,1.274-.4,1.611-1.613,1.6H60.816v4.448c.017,1.194-.326,1.6-1.619,1.59l-4,.047c-1.237.02-1.145-.682-1.137-1.664v-4.42H49.538c-1.209.014-1.621-.323-1.613-1.6l-.048-3.944c-.017-1.219.694-1.129,1.69-1.121h4.488V51.4ZM32.448,19.7l-.014,22.127-8.152-5.471-8.15,4.539L17.1,17.639,3.072,15.761V64.63L31.42,68.243a26.9,26.9,0,0,0,1.4,3.22l-31.351-4A1.526,1.526,0,0,1,0,65.954V14.032a1.505,1.505,0,0,1,.906-1.376l28-12.522a1.569,1.569,0,0,1,.833-.119L78.56,6.578a1.521,1.521,0,0,1,1.359,1.56v0L80,43.861c-.906-1.321-2.467-3.167-3.157-4.336V10.863L58.5,22.562V31.9a28.091,28.091,0,0,0-3.072.056V22.773L32.448,19.7ZM19.534,14.921,37.3,4.08,29.766,3.067,7.008,13.242l12.526,1.679Z" transform="translate(0 -0.002)" fill="#614873" fill-rule="evenodd"/></svg>