<svg xmlns="http://www.w3.org/2000/svg" width="81.399" height="62.699" viewBox="0 0 81.399 62.699"><defs><style>.a,.b{fill:#614873;}.a{fill-rule:evenodd;}</style></defs><g transform="translate(-1172.906 -47.606)"><path class="a" d="M3.478,0h50.1a3.478,3.478,0,0,1,2.458,1.027h0A3.482,3.482,0,0,1,57.075,3.5V51.48a3.5,3.5,0,0,1-3.493,3.493H3.478a3.478,3.478,0,0,1-2.462-1.027h0A3.483,3.483,0,0,1-.02,51.473V3.489A3.527,3.527,0,0,1,1.011,1.022,1.266,1.266,0,0,1,1.127.915,3.488,3.488,0,0,1,3.478,0ZM8.161,16.153H48.085V31.785H8.161ZM20.467,27.237H17.48l-.427,1.607H14.358L17.573,19.1h2.885l3.2,9.746H20.9l-.427-1.607Zm-.557-2.109-.934-3.5-.934,3.5Zm5.036-6.03h3.921a4.213,4.213,0,0,1,1.872.358,3.187,3.187,0,0,1,1.18,1.031,4.559,4.559,0,0,1,.674,1.561,8.234,8.234,0,0,1,.209,1.886,7.346,7.346,0,0,1-.311,2.42,4,4,0,0,1-.864,1.445,2.773,2.773,0,0,1-1.189.776,5.415,5.415,0,0,1-1.57.265H24.945V19.1Zm2.634,2.2v5.324h.646a2.435,2.435,0,0,0,1.18-.209,1.41,1.41,0,0,0,.548-.729,5.1,5.1,0,0,0,.2-1.691,3.66,3.66,0,0,0-.441-2.118A1.752,1.752,0,0,0,28.24,21.3h-.66Zm6.569,4.32,2.5-.181a2.373,2.373,0,0,0,.33,1.059,1.341,1.341,0,0,0,1.166.59,1.171,1.171,0,0,0,.869-.3.955.955,0,0,0,.307-.7.944.944,0,0,0-.288-.678,3.137,3.137,0,0,0-1.347-.567,5.344,5.344,0,0,1-2.471-1.18,2.516,2.516,0,0,1-.743-1.877,2.808,2.808,0,0,1,.381-1.417A2.633,2.633,0,0,1,36,19.316a4.751,4.751,0,0,1,2.1-.381,3.875,3.875,0,0,1,2.495.7,3.152,3.152,0,0,1,1.022,2.211l-2.481.167a1.64,1.64,0,0,0-.413-.966,1.236,1.236,0,0,0-.878-.3.961.961,0,0,0-.692.223.731.731,0,0,0-.232.544.582.582,0,0,0,.19.418,1.947,1.947,0,0,0,.878.358,9.816,9.816,0,0,1,2.471.864,2.754,2.754,0,0,1,1.087,1.078,3.028,3.028,0,0,1,.339,1.445,3.432,3.432,0,0,1-.455,1.728,2.953,2.953,0,0,1-1.268,1.2,4.54,4.54,0,0,1-2.053.409,3.885,3.885,0,0,1-3.01-.964,4.056,4.056,0,0,1-.948-2.43ZM8.416,39.2a1.087,1.087,0,0,1,0-2.174h16.6a1.087,1.087,0,1,1,0,2.174Zm21.365,0a1.092,1.092,0,0,1,0-2.183H47.69a1.092,1.092,0,1,1,0,2.183Zm0,6.318a1.092,1.092,0,0,1,0-2.183H47.69a1.092,1.092,0,1,1,0,2.183Zm-20.84,0a1.087,1.087,0,0,1,0-2.174h16.6a1.087,1.087,0,1,1,0,2.174ZM23.273,4.506a2.267,2.267,0,1,1-2.267,2.267,2.267,2.267,0,0,1,2.267-2.267Zm-15.855,0A2.267,2.267,0,1,1,5.151,6.773,2.267,2.267,0,0,1,7.418,4.506Zm7.925,0a2.267,2.267,0,1,1-2.267,2.267,2.267,2.267,0,0,1,2.267-2.267Zm38.577,8a2.031,2.031,0,0,1-.334.028H3.478a1.95,1.95,0,0,1-.334-.028V51.469a.35.35,0,0,0,.093.237h0a.322.322,0,0,0,.237.093h50.1a.349.349,0,0,0,.339-.339V12.511Z" transform="translate(1172.926 47.606)"/><path class="b" d="M1.818,0H27.911a1.823,1.823,0,0,1,1.818,1.818V27.911a1.823,1.823,0,0,1-1.818,1.818H1.818A1.823,1.823,0,0,1,0,27.911V1.818A1.823,1.823,0,0,1,1.818,0ZM6.442,15.482a.871.871,0,0,0,.618.256h6.93v6.931a.874.874,0,1,0,1.747,0V15.738h6.931a.874.874,0,1,0,0-1.747H15.737V7.059a.874.874,0,0,0-1.747,0V13.99H7.059a.873.873,0,0,0-.618,1.491Z" transform="translate(1224.576 80.576)"/></g></svg>