<svg xmlns="http://www.w3.org/2000/svg" width="57.276" height="56.712" viewBox="0 0 57.276 56.712"><path d="M42.566,32.227h4.712a1.748,1.748,0,0,1,1.743,1.743v6.4h6.4a1.748,1.748,0,0,1,1.748,1.743v4.712a1.748,1.748,0,0,1-1.748,1.743h-6.4v6.4a1.748,1.748,0,0,1-1.743,1.743H42.566a1.753,1.753,0,0,1-1.748-1.743v-6.4h-6.4a1.748,1.748,0,0,1-1.743-1.743V42.114a1.748,1.748,0,0,1,1.743-1.743h6.4v-6.4a1.753,1.753,0,0,1,1.748-1.743Zm-40.85,0H22.886A1.72,1.72,0,0,1,24.6,33.938V55a1.72,1.72,0,0,1-1.715,1.711H1.715A1.715,1.715,0,0,1,0,55V33.938a1.715,1.715,0,0,1,1.715-1.711ZM34.39,0H55.566a1.715,1.715,0,0,1,1.711,1.711V22.793a1.715,1.715,0,0,1-1.711,1.715H34.39a1.72,1.72,0,0,1-1.715-1.715V1.711A1.72,1.72,0,0,1,34.39,0ZM1.715,0H22.886A1.72,1.72,0,0,1,24.6,1.711V22.793a1.72,1.72,0,0,1-1.715,1.715H1.715A1.715,1.715,0,0,1,0,22.793V1.711A1.715,1.715,0,0,1,1.715,0Z" fill="#614873" fill-rule="evenodd"/></svg>