<svg xmlns="http://www.w3.org/2000/svg" width="48.705" height="44" viewBox="0 0 48.705 44"><path d="M4.726,0H36.811a4.71,4.71,0,0,1,3.332,1.39l.079.087a4.714,4.714,0,0,1,1.314,3.25V18.293a15.06,15.06,0,0,0-6.174-.442l3.631-3.379V4.727a2.187,2.187,0,0,0-.59-1.486l-.057-.053a2.176,2.176,0,0,0-1.535-.646H4.726a2.176,2.176,0,0,0-1.486.584l-.055.059a2.18,2.18,0,0,0-.643,1.542V21.653C5.356,19.116,9.86,15.569,12.7,13.179a1.242,1.242,0,0,1,1.61,0,2,2,0,0,1,.238.262l6.625,10.047,2.368-7.207a1.25,1.25,0,0,1,2.1-.672l4.282,4.1a15,15,0,0,0-2.092,1.457l-2.2-2.116-2.416,7.494a1.247,1.247,0,0,1-2.18.645L13.4,15.929l-10.854,9.1v7.58A2.211,2.211,0,0,0,4.726,34.8h17.84a14.848,14.848,0,0,0,.588,2.542H4.726A4.75,4.75,0,0,1,0,32.61V4.727a4.719,4.719,0,0,1,1.387-3.34l.088-.079A4.714,4.714,0,0,1,4.726,0ZM37.4,21.38a11.317,11.317,0,1,1-8,3.317,11.272,11.272,0,0,1,8-3.317Zm-.815,6.288h1.632a.708.708,0,0,1,.7.7v2.8h2.8a.71.71,0,0,1,.7.7v1.631a.711.711,0,0,1-.7.7h-2.8v2.8a.711.711,0,0,1-.7.7H36.58a.707.707,0,0,1-.7-.7v-2.8h-2.8a.708.708,0,0,1-.7-.7V31.875a.7.7,0,0,1,.7-.7h2.8v-2.8A.7.7,0,0,1,36.58,27.668Zm7.268-1.432a9.128,9.128,0,1,0,2.673,6.453A9.1,9.1,0,0,0,43.848,26.236ZM25.484,5.816a3.81,3.81,0,1,1-2.693,1.116,3.8,3.8,0,0,1,2.693-1.116Zm1.162,2.646a1.647,1.647,0,1,0,.48,1.162A1.644,1.644,0,0,0,26.647,8.462Z" fill="rgba(138,138,138,0.5)"/></svg>