<svg xmlns="http://www.w3.org/2000/svg" width="81.686" height="78.865" viewBox="0 0 81.686 78.865"><g transform="translate(-2.233 0.49)"><g transform="translate(2.233 -0.49)" fill="none" stroke="#614873" stroke-width="3"><rect width="62" height="61" rx="5" stroke="none"/><rect x="1.5" y="1.5" width="59" height="58" rx="3.5" fill="none"/></g><g transform="translate(11.058 11.156)"><path d="M36.351,28.859h2.327V22.914a.427.427,0,0,0-.423-.423h-14.2v6.369h2.323A1.339,1.339,0,0,1,27.711,30.2v5.346a1.339,1.339,0,0,1-1.336,1.336H18.824a1.339,1.339,0,0,1-1.336-1.336V30.2a1.339,1.339,0,0,1,1.336-1.336h2.323V22.49H6.947a.427.427,0,0,0-.423.423v5.946H8.887A1.339,1.339,0,0,1,10.224,30.2v5.346a1.339,1.339,0,0,1-1.336,1.336H1.336A1.339,1.339,0,0,1,0,35.541V30.2a1.339,1.339,0,0,1,1.336-1.336H3.63V22.914A3.318,3.318,0,0,1,6.947,19.6h14.2V8.018H18.827a1.339,1.339,0,0,1-1.336-1.336V1.336A1.339,1.339,0,0,1,18.827,0h7.551a1.339,1.339,0,0,1,1.336,1.336V6.682a1.339,1.339,0,0,1-1.336,1.336H24.055V19.6h14.2a3.318,3.318,0,0,1,3.317,3.317v5.946h2.33A1.339,1.339,0,0,1,45.242,30.2v5.346a1.339,1.339,0,0,1-1.336,1.336H36.355a1.339,1.339,0,0,1-1.336-1.336V30.2a1.336,1.336,0,0,1,1.333-1.336Z" fill="#614873" fill-rule="evenodd"/></g><path d="M1.818,0H27.911a1.823,1.823,0,0,1,1.818,1.818V27.911a1.823,1.823,0,0,1-1.818,1.818H1.818A1.823,1.823,0,0,1,0,27.911V1.818A1.823,1.823,0,0,1,1.818,0ZM6.442,15.482a.871.871,0,0,0,.618.256h6.93v6.931a.874.874,0,1,0,1.747,0V15.738h6.931a.874.874,0,1,0,0-1.747H15.737V7.059a.874.874,0,0,0-1.747,0V13.99H7.059a.873.873,0,0,0-.618,1.491Z" transform="translate(54.19 48.646)" fill="#614873"/></g></svg>