<svg xmlns="http://www.w3.org/2000/svg" width="40" height="40" viewBox="0 0 40 40"><path d="M4.59,0H35.41A4.6,4.6,0,0,1,40,4.59V35.41A4.606,4.606,0,0,1,35.41,40H4.59A4.6,4.6,0,0,1,0,35.41V4.59A4.6,4.6,0,0,1,4.59,0ZM26.483,9.239l4.151,4.154a1.411,1.411,0,0,1,0,1.989l-2.3,2.3-6.143-6.143,2.3-2.3a1.415,1.415,0,0,1,1.992,0ZM17.039,28.967,12.052,30.51c-3.91,1.208-3.89,2.012-2.826-1.748l1.68-5.925h0l-.007-.007L21.03,12.7l6.143,6.143L17.049,28.97l-.01,0Zm-5.082-5.085,4.034,4.034q-1.634.5-3.278,1.012c-2.565.788-2.552,1.318-1.856-1.152Z" fill="#614873" fill-rule="evenodd"/></svg>