<svg xmlns="http://www.w3.org/2000/svg" width="40" height="40" viewBox="0 0 40 40"><defs><style>.a,.b{fill:#614873;}.b{fill-rule:evenodd;}</style></defs><g transform="translate(-2489 -942)"><path class="a" d="M.733,0h6.5a.729.729,0,0,1,.517.217A.743.743,0,0,1,7.97.739V7.275a.736.736,0,0,1-.733.74H.733A.729.729,0,0,1,.212,7.8L.2,7.781A.743.743,0,0,1,0,7.275V.74A.736.736,0,0,1,.733,0ZM10.767,9.987h6.5a.743.743,0,0,1,.733.74v6.531a.736.736,0,0,1-.733.74h-6.5a.729.729,0,0,1-.511-.211l-.013-.016a.734.734,0,0,1-.2-.509V10.73a.743.743,0,0,1,.215-.525l.015-.015a.729.729,0,0,1,.5-.2Zm-10.034,0h6.5a.741.741,0,0,1,.734.741v6.531A.736.736,0,0,1,7.238,18H.733a.729.729,0,0,1-.52-.217L.2,17.767a.743.743,0,0,1-.2-.5V10.731a.736.736,0,0,1,.733-.74ZM10.767,0h6.5A.736.736,0,0,1,18,.74V7.275a.736.736,0,0,1-.733.74h-6.5a.736.736,0,0,1-.733-.74V.74a.743.743,0,0,1,.221-.522L10.27.2a.729.729,0,0,1,.5-.2Z" transform="translate(2500.033 953.033)"/><path class="b" d="M20,0A20,20,0,1,1,0,20,20,20,0,0,1,20,0Zm0,2.959A17.041,17.041,0,1,1,2.959,20,17.041,17.041,0,0,1,20,2.959Z" transform="translate(2489 942)"/></g></svg>