<svg xmlns="http://www.w3.org/2000/svg" width="55" height="50" viewBox="0 0 55 50"><defs><style>.a{fill:#fff3f7;}</style></defs><path class="a" d="M33.367,55.8a22.468,22.468,0,0,1-8.774-1.786,23.275,23.275,0,0,1-7.4-4.876l2.815-2.953A19.669,19.669,0,0,0,26.132,50.2a18.452,18.452,0,0,0,7.235,1.477,18.724,18.724,0,0,0,14.045-6.147A20.6,20.6,0,0,0,53.271,30.8a20.6,20.6,0,0,0-5.86-14.732A18.724,18.724,0,0,0,33.367,9.921a18.724,18.724,0,0,0-14.045,6.147A20.6,20.6,0,0,0,13.462,30.8v1.236l4.583-4.808,2.75,2.885-9.3,9.753L2.2,30.113l2.75-2.885,4.583,4.808V30.8a25.438,25.438,0,0,1,6.973-17.685,24.065,24.065,0,0,1,7.562-5.357,22.268,22.268,0,0,1,9.3-1.957,22.268,22.268,0,0,1,9.3,1.957,24.065,24.065,0,0,1,7.563,5.357A25.438,25.438,0,0,1,57.2,30.8a24.73,24.73,0,0,1-6.94,17.72A22.461,22.461,0,0,1,33.367,55.8ZM28.129,41.446a2.15,2.15,0,0,1-1.6-.721,2.362,2.362,0,0,1-.688-1.683V30.8a2.26,2.26,0,0,1,.753-1.683,2.593,2.593,0,0,1,1.866-.721V25.305a5.086,5.086,0,0,1,1.44-3.64,4.74,4.74,0,0,1,6.94,0,5.086,5.086,0,0,1,1.44,3.64V28.4a2.593,2.593,0,0,1,1.866.721A2.26,2.26,0,0,1,40.9,30.8v8.242a2.362,2.362,0,0,1-.688,1.683,2.15,2.15,0,0,1-1.6.721ZM30.42,28.4h5.893V25.305a3.064,3.064,0,0,0-.851-2.2,2.9,2.9,0,0,0-4.19,0,3.064,3.064,0,0,0-.851,2.2Z" transform="translate(-2.2 -5.8)"/></svg>