<svg xmlns="http://www.w3.org/2000/svg" width="40" height="40" viewBox="0 0 40 40"><g transform="translate(-98 -619)"><rect width="40" height="40" rx="5" transform="translate(98 619)" fill="#614873"/><path d="M7.837,0H26.891a.346.346,0,0,1,.343.343V4.478a.35.35,0,0,1-.343.341H7.837A.346.346,0,0,1,7.5,4.478V.343A.341.341,0,0,1,7.837,0Zm0,17.869H26.891a.346.346,0,0,1,.343.341v4.137a.35.35,0,0,1-.343.341H7.837a.346.346,0,0,1-.341-.341V18.21A.341.341,0,0,1,7.837,17.869Zm-7.493,0H3.888a.346.346,0,0,1,.343.341v4.137a.35.35,0,0,1-.343.341H.343A.346.346,0,0,1,0,22.347V18.21a.341.341,0,0,1,.343-.341Zm7.493-4.114H26.891a.346.346,0,0,0,.343-.343V9.277a.35.35,0,0,0-.343-.343H7.837a.348.348,0,0,0-.341.343v4.134a.343.343,0,0,0,.341.343Zm-7.493,0H3.888a.346.346,0,0,0,.343-.343V9.277a.35.35,0,0,0-.343-.343H.343A.348.348,0,0,0,0,9.277v4.134a.343.343,0,0,0,.343.343ZM.343,0H3.888a.346.346,0,0,1,.343.343V4.478a.35.35,0,0,1-.343.341H.343A.346.346,0,0,1,0,4.478V.343A.341.341,0,0,1,.343,0Z" transform="translate(104.383 627.656)" fill="#fff3f7" fill-rule="evenodd"/></g></svg>