<svg xmlns="http://www.w3.org/2000/svg" width="40" height="40" viewBox="0 0 40 40"><g transform="translate(-158 -619)"><rect width="40" height="40" rx="5" transform="translate(158 619)" fill="#614873"/><g transform="translate(165.508 622.369)"><path d="M12.5,18.707l.975,2.382,2.566.189-1.965,1.665.612,2.5L12.5,24.09l-2.2,1.355.612-2.5L8.949,21.279l2.566-.189.98-2.382ZM12.679.974A1.142,1.142,0,0,1,13.31.1a1.265,1.265,0,0,1,.858-.049,2.388,2.388,0,0,1,.82.42,4.049,4.049,0,0,1,1.5,2.915,8.666,8.666,0,0,1-.019,1.291c-.024.3-.065.62-.116.95h3.122a3.323,3.323,0,0,1,1.408.36,2.275,2.275,0,0,1,.866.761,1.937,1.937,0,0,1,.314,1.161,2.773,2.773,0,0,1-.282,1.072,3.368,3.368,0,0,1,.084,1.3,1.51,1.51,0,0,1-.43.877,3.863,3.863,0,0,1-.217,1.459,3.05,3.05,0,0,1-.7,1.088,4.6,4.6,0,0,1-.138.777,2.674,2.674,0,0,1-.387.834h0a1.5,1.5,0,0,1-1.624.7c-.092,0-.195-.008-.349-.008H11.943a2.935,2.935,0,0,1-1.37-.276A3.236,3.236,0,0,1,9.5,14.8l-.092-.257v-7.1l.309-.084A3.414,3.414,0,0,0,11.6,5.676,11.819,11.819,0,0,0,12.671,3.1V1.053ZM3.543,6.7H8.075a.624.624,0,0,1,.623.623v8.286a.624.624,0,0,1-.623.623H3.543a.624.624,0,0,1-.623-.623V7.327A.623.623,0,0,1,3.543,6.7ZM13.657.852A.328.328,0,0,0,13.5,1.1V3.164l-.019.119A12.784,12.784,0,0,1,12.306,6.1a4.456,4.456,0,0,1-2.068,1.96v6.329a2.267,2.267,0,0,0,.7.6,2.194,2.194,0,0,0,1,.187h6.083c.108,0,.249.005.382.011.4.016.65.027.918-.355h0a1.9,1.9,0,0,0,.265-.579,3.844,3.844,0,0,0,.122-.766l.127-.273a2.315,2.315,0,0,0,.6-.891,3.276,3.276,0,0,0,.16-1.34l-.014-.246.208-.13a.633.633,0,0,0,.254-.463,2.712,2.712,0,0,0-.106-1.1l.032-.3a2.091,2.091,0,0,0,.26-.864,1.128,1.128,0,0,0-.181-.679,1.466,1.466,0,0,0-.555-.482,2.488,2.488,0,0,0-1.039-.263h-4.1l.092-.493a13.274,13.274,0,0,0,.2-1.363,7.761,7.761,0,0,0,.019-1.167,3.211,3.211,0,0,0-1.178-2.312A1.554,1.554,0,0,0,13.954.85a.477.477,0,0,0-.3,0ZM8.018,26.525l.975,2.382,2.566.189L9.593,30.761l.612,2.5-2.19-1.353-2.19,1.353.612-2.5L4.472,29.1l2.566-.189.98-2.382Zm8.952,0,.975,2.382,2.566.189-1.965,1.665.612,2.5-2.19-1.353-2.19,1.353.612-2.5L13.424,29.1l2.566-.189.98-2.382Zm4.475-7.818.975,2.382,2.566.189L23.02,22.944l.614,2.5-2.19-1.353-2.19,1.353.612-2.5L17.9,21.279l2.566-.189.977-2.382Zm-17.9,0,.975,2.382,2.566.189L5.119,22.944l.612,2.5-2.19-1.353L1.353,25.445l.612-2.5L0,21.279l2.566-.189.977-2.382Z" fill="#fff3f7" fill-rule="evenodd"/></g></g></svg>