<svg xmlns="http://www.w3.org/2000/svg" width="40" height="40" viewBox="0 0 40 40"><defs><style>.a,.a{fill-rule:evenodd;}</style></defs><g transform="translate(-2489 -1079)"><path class="a" d="M20,0A20,20,0,1,1,0,20,20,20,0,0,1,20,0Zm0,2.959A17.041,17.041,0,1,1,2.959,20,17.041,17.041,0,0,1,20,2.959Z" transform="translate(2489 1079)"/><path class="b" d="M7.015,10.446a2.931,2.931,0,0,1-.248-.3c-.183-.251-.355-.513-.521-.776L5.421,8.051a2.291,2.291,0,0,1-.478-1.2A.876.876,0,0,1,5.5,5.99a22.739,22.739,0,0,1-.032-2.377,3,3,0,0,1,.1-.545,3.141,3.141,0,0,1,1.4-1.782A3.6,3.6,0,0,1,7.732.922c.481-.181.25-.914.779-.924A6.9,6.9,0,0,1,12.568,1.88a3.131,3.131,0,0,1,.808,2.03l-.05,2.162a.609.609,0,0,1,.446.445,1.841,1.841,0,0,1-.231,1.139h0c0,.017-.017.017-.017.034l-.941,1.55c-.213.35-.434.708-.682,1.037-.294.393-.536.323-.285.7,1.8,2.476,7.095.914,7.095,5.838H0c0-4.927,5.3-3.362,7.1-5.836.207-.3.152-.282-.081-.53Z" transform="translate(2499.645 1090.594)"/></g></svg>