<svg xmlns="http://www.w3.org/2000/svg" width="40" height="40" viewBox="0 0 40 40"><path d="M2.446,0H37.554A2.453,2.453,0,0,1,40,2.446V37.554A2.453,2.453,0,0,1,37.554,40H2.446A2.453,2.453,0,0,1,0,37.554V2.446A2.453,2.453,0,0,1,2.446,0ZM11.4,12.575a1.173,1.173,0,0,0,.344.831l6.564,6.564.031.031-.031.031-6.564,6.563a1.175,1.175,0,1,0,1.662,1.662l6.563-6.564L20,21.662l.031.031,6.563,6.564a1.176,1.176,0,1,0,1.662-1.662l-6.563-6.564L21.662,20l.031-.031,6.563-6.564a1.175,1.175,0,0,0-1.662-1.662l-6.563,6.564L20,18.338l-.031-.031-6.563-6.563a1.175,1.175,0,0,0-2.007.831Z" fill="#b91c1c"/></svg>